<svg aria-hidden="true" style="position: absolute; width: 0; height: 0; overflow: hidden;" version="1.1" xmlns="http://www.w3.org/2000/svg" xmlns:xlink="http://www.w3.org/1999/xlink">
<defs>
<symbol id="phone" viewBox="0 0 32 32">
<path stroke="#fff" style="stroke: var(--color1, #fff)" stroke-linejoin="miter" stroke-linecap="butt" stroke-miterlimit="10" stroke-width="1.3913" d="M23.476 30.609c-6.1 0-11.585-2.521-15.584-6.521s-6.501-9.469-6.501-15.571c0-1.283 0.57-2.432 1.46-3.216l3.482-3.314c0.383-0.374 0.899-0.597 1.469-0.597 0.739 0 1.389 0.374 1.772 0.944l3.535 4.944c0.249 0.347 0.392 0.775 0.392 1.238 0 0.632-0.285 1.211-0.721 1.603l-2.832 2.494c-0.392 0.392-0.721 0.944-0.721 1.603-0.009 1.568 1.158 3.723 2.992 5.558s3.989 3.002 5.557 2.993c0.65 0 1.211-0.33 1.603-0.722l2.502-2.824c0.392-0.445 0.962-0.722 1.603-0.722 0.463 0 0.882 0.142 1.238 0.392l4.942 3.536c0.57 0.383 0.944 1.033 0.944 1.773 0 0.57-0.223 1.087-0.588 1.47l-3.313 3.483c-0.802 0.882-1.95 1.452-3.233 1.452z"></path>
</symbol>
<symbol id="logo" viewBox="0 0 32 32">
<path fill="#fff" style="fill: var(--color1, #fff)" d="M0 0h3.257v28.657h9.58v3.247h-12.838v-31.905z"></path>
<path fill="#fff" style="fill: var(--color1, #fff)" d="M9.58 25.696h3.253v-6.401h3.158v-3.245h-3.158v-12.708h6.323v28.657h10.929c0 0 1.914-0.095 1.914-2.29v-27.704c0 0 0.096-1.909-2.105-1.909h-4.315v3.149h3.158v25.509h-6.319v-26.749c0 0-0.096-1.909-1.722-1.909h-9.582c0 0-1.531 0.286-1.531 1.909l-0.002 23.69z"></path>
</symbol>
<symbol xmlns="http://www.w3.org/2000/svg" viewBox="0 0 40 23" id="menu_burger">
    <line y1="1.5" x2="40" y2="1.5" stroke="white" stroke-width="3"></line>
    <line y1="11.5" x2="40" y2="11.5" stroke="white" stroke-width="3"></line>
    <line y1="21.5" x2="40" y2="21.5" stroke="white" stroke-width="3"></line>
  </symbol>
</defs>
</svg>
